{"title":"Wrong Turn 4 (2011) DVDRip NL subs DutchReleaseTeam","uid":6768433,"size":738029787,"categoryP":"video","categoryS":"movies","magnet":"?xt=urn:btih:87203fc3034256cd83f99ae1ff147e061858dafb&amp;dn=Wrong+Turn+4+%282011%29+DVDRip+NL+subs+DutchReleaseTeam&amp;tr=udp%3A%2F%2Ftracker.openbittorrent.com%3A80&amp;tr=udp%3A%2F%2Fopen.demonii.com%3A1337&amp;tr=udp%3A%2F%2Ftracker.coppersurfer.tk%3A6969&amp;tr=udp%3A%2F%2Fexodus.desync.com%3A6969","seeders":5,"leechers":1,"uploader":"Koedje","files":-1,"time":1319483755,"description":" &lt;a href=&quot;http://img714.imageshack.us/img714/3126/wrongturny.jpg&quot; rel=&quot;nofollow&quot; target=&quot;_NEW&quot;&gt;http://img714.imageshack.us/img714/3126/wrongturny.jpg&lt;/a&gt;\n\n\nVerenigde Staten\nHorror / Actie\n\ngeregisseerd door Declan O'Brien\nmet Terra Vnesa, Dean Armstrong en Tenika Davis\n\nEen groep vrienden besluit tijdens hun wintervakantie met een sneeuwscooter rond te trekken. Ze nemen een verkeerde afslag en komen terecht in een storm. Ze zoeken hun toevlucht in een verlaten sanatorium. Door de storm kunnen de vrienden niet naar buiten en ze zijn blij dat ze ergens kunnen verblijven. Maar wat ze niet weten is dat het sanatorium een vreselijk verleden heeft en dat een aantal voormalige patiÃƒÂ«nten er nog steeds woont. Een dodelijk kat-en-muisspel begint.\n\n\nVertaald door Simply ReleaseS Toppers\nTackleR en Suurtje\n\n\n\n\n\nScreenshots:\n &lt;a href=&quot;\nhttp://img811.imageshack.us/img811/4756/screenshot1niv.jpg&quot; rel=&quot;nofollow&quot; target=&quot;_NEW&quot;&gt;\nhttp://img811.imageshack.us/img811/4756/screenshot1niv.jpg&lt;/a&gt;\n &lt;a href=&quot;\nhttp://img189.imageshack.us/img189/6792/screenshot2sg.jpg&quot; rel=&quot;nofollow&quot; target=&quot;_NEW&quot;&gt;\nhttp://img189.imageshack.us/img189/6792/screenshot2sg.jpg&lt;/a&gt;\n &lt;a href=&quot;\nhttp://img543.imageshack.us/img543/1083/screenshot3ci.jpg&quot; rel=&quot;nofollow&quot; target=&quot;_NEW&quot;&gt;\nhttp://img543.imageshack.us/img543/1083/screenshot3ci.jpg&lt;/a&gt;\n &lt;a href=&quot;\nhttp://img217.imageshack.us/img217/4551/screenshot4uve.jpg&quot; rel=&quot;nofollow&quot; target=&quot;_NEW&quot;&gt;\nhttp://img217.imageshack.us/img217/4551/screenshot4uve.jpg&lt;/a&gt;\n\n\n\n\nINFO;\n\nVideo\nID                                       : 0\nFormat                                   : MPEG-4 Visual\nFormat profile                           : Advanced Simple@L5\nFormat settings, BVOP                    : 1\nFormat settings, QPel                    : No\nFormat settings, GMC                     : No warppoints\nFormat settings, Matrix                  : Custom\nCodec ID                                 : XVID\nCodec ID/Hint                            : XviD\nDuration                                 : 1h 33mn\nBit rate                                 : 926 Kbps\nWidth                                    : 608 pixels\nHeight                                   : 352 pixels\nDisplay aspect ratio                     : 16:9\nFrame rate                               : 23.976 fps\nColor space                              : YUV\nChroma subsampling                       : 4:2:0\nBit depth                                : 8 bits\nScan type                                : Progressive\nCompression mode                         : Lossy\nBits/(Pixel*Frame)                       : 0.180\nStream size                              : 618 MiB (88%)\nWriting library                          : XviD 64\n\nAudio\nID                                       : 1\nFormat                                   : MPEG Audio\nFormat version                           : Version 1\nFormat profile                           : Layer 3\nMode                                     : Joint stereo\nMode extension                           : MS Stereo\nCodec ID                                 : 55\nCodec ID/Hint                            : MP3\nDuration                                 : 1h 33mn\nBit rate mode                            : Variable\nBit rate                                 : 110 Kbps\nNominal bit rate                         : 128 Kbps\nChannel(s)                               : 2 channels\nSampling rate                            : 48.0 KHz\nCompression mode                         : Lossy\nStream size                              : 73.6 MiB (11%)\nAlignment                                : Aligned on interleaves\nInterleave, duration                     : 24 ms (0.58 video frame)\nInterleave, preload duration             : 167 ms\nWriting library                          : LAME3.98r\n\n\n\n &lt;a href=&quot;\nhttp://www.imdb.com/title/tt1865567/&quot; rel=&quot;nofollow&quot; target=&quot;_NEW&quot;&gt;\nhttp://www.imdb.com/title/tt1865567/&lt;/a&gt; &lt;a href=&quot;\nhttp://www.moviemeter.nl/film/77316&quot; rel=&quot;nofollow&quot; target=&quot;_NEW&quot;&gt;\nhttp://www.moviemeter.nl/film/77316&lt;/a&gt;\n\n\n\nDeze film wordt u aangeboden door het DutchReleaseTeam.\nVoor de reviews van de nieuwste films, muziek, series, games etc\nga dan eens naar http://www.hetmultimediacafe.be\n\nDutchReleaseteam = Hardcoded Dutch Subs","torrent":{"xt":"urn:btih:87203fc3034256cd83f99ae1ff147e061858dafb","amp;dn":"Wrong+Turn+4+%282011%29+DVDRip+NL+subs+DutchReleaseTeam","amp;tr":["udp%3A%2F%2Ftracker.openbittorrent.com%3A80","udp%3A%2F%2Fopen.demonii.com%3A1337","udp%3A%2F%2Ftracker.coppersurfer.tk%3A6969","udp%3A%2F%2Fexodus.desync.com%3A6969"],"infoHash":"87203fc3034256cd83f99ae1ff147e061858dafb","infoHashBuffer":{"type":"Buffer","data":[135,32,63,195,3,66,86,205,131,249,154,225,255,20,126,6,24,88,218,251]},"announce":[],"urlList":[]}}